<svg id="Livello_2" data-name="Livello 2" xmlns="http://www.w3.org/2000/svg" viewBox="0 0 197.4 197.66"><defs><style>.cls-1{fill:#92a8d3;}.cls-2{fill:#b68bb9;}.cls-3{fill:none;}</style></defs><title>icona</title><path class="cls-1" d="M235.14,273.27c.32,3.45,3.5,6.17,7.3,8.1,4.11-4.23,8.84-10.8,2.34-15.23-2.67-1.82-4.31-1.31-6.14-.46C236.38,266.8,234.78,269.46,235.14,273.27Z" transform="translate(-151.3 -136.39)"/><path class="cls-1" d="M317.05,235.61c-8.73-25.64-29.4-42.5-49-41.59a24.45,24.45,0,1,0-22.15,10.5,42.07,42.07,0,0,0-8.07,13.15,20.08,20.08,0,1,0-36.67,14.38c-10.6,4.12-20,14.6-24.11,28.52-3.22,10.87-2.61,21.71,1,30.34a25.25,25.25,0,0,0,4.43,7.69,27.12,27.12,0,0,0,5,4.94c11.79,9.75,30.73,20.46,54.09,20.46,27.6,0,52.84-13.26,62.79-26.07C319.87,286.43,325.65,260.86,317.05,235.61Zm-82.79-2.51a68.31,68.31,0,0,0,.06,12.54,30.68,30.68,0,0,0-5.25-7.6A20.16,20.16,0,0,0,234.26,233.1ZM290.19,244c-1.46,6.47-8.33,17.43-13.09,18.56a48.68,48.68,0,0,1-2.35,9.28c-.71,1.46-2.64,6-6.37,8.53a39.67,39.67,0,0,1-10.64,4.52c-4.47,1.21-10.83.51-15.2-1.47-1.3,1.21-2,2.49-4,3.32a21.24,21.24,0,0,1-21.41-2.5s-4-3.3-5.81-5.08c-3.23.39-8.86-5.65-11.43-9.19-2.85-3.91-2.83-8.7,0-10.69,1.76-1.22,4.18-1.11,6.45.06a5.4,5.4,0,0,1,4.14-3.32c3.27-.33,6.27,3.3,6.7,8.1.38,4.26-1.7,12.27-4.46,14.25,1.1,1,.78.79,2.16,2,.05,0,2,1.78,2.93,2.53,4.29,3.36,8.89,4.14,13.89,4s9.23-3.6,9.79-4.54c-4-1.93-7.75-5-8.08-8.54-.41-4.35,1.94-8.69,4.7-10,2.16-.83,4.8-.8,8.11,1.46,6.87,4.69,1.86,12.27-2.35,16.4,2.54,1.21,5,2.66,9.75,2.16a45.07,45.07,0,0,0,8.82-2.37c6-2.72,8.56-6.2,10-9.14a31.74,31.74,0,0,0,3.14-9.73l.41.08a2.35,2.35,0,0,1-.26,0,1,1,0,0,1-.15-.07c-4.68-.85-10.22-11.92-12.19-18.24-2.17-7,.06-13.86,5-15.39,3-.94,6.33.36,8.94,3.09,2.15-2.26,4.78-3.41,7.29-2.84C289.3,230.23,291.8,236.86,290.19,244Z" transform="translate(-151.3 -136.39)"/><path class="cls-2" d="M245.07,139.76c-12.95-2.75-37.47-8-59.35,5.17-36.58,22-34.7,76.52-34.26,89.07.19,5.4,3.72,75.24,48.75,94.5,14.89,6.37,29.32,6,41.88,5a126.59,126.59,0,0,0,60.61-22.55c10.23-7.24,41.41-29.28,45.54-62.81C354.48,197.56,295.6,150.49,245.07,139.76Zm25.78,182.66c-17.72,8.09-45.12,11.07-64.17,4.69-34.49-11.56-49.56-64.92-50.57-93.11-.91-25.44,6.11-71.1,32.63-84.75,19.21-9.88,45.95-8.21,59.3-3.34,26.4,9.65,90.23,38.94,94.35,86.66a57,57,0,0,1-1.9,21.4C326.72,299.23,292.14,312.71,270.85,322.42Z" transform="translate(-151.3 -136.39)"/><path class="cls-1" d="M245,321.42a86,86,0,1,1,86-86A86,86,0,0,1,245,321.42Zm0-176.64a90.67,90.67,0,1,0,90.67,90.67A90.67,90.67,0,0,0,245,144.78Z" transform="translate(-151.3 -136.39)"/><path class="cls-3" d="M245,163h0" transform="translate(-151.3 -136.39)"/></svg>