<svg id="Livello_2" data-name="Livello 2" xmlns="http://www.w3.org/2000/svg" viewBox="0 0 393.7 56.35"><defs><style>.cls-1{fill:#93a9d4;}.cls-2{fill:#b78cb9;}.cls-3{fill:none;}</style></defs><title>logo orizzontale educare in positivo</title><path class="cls-1" d="M93.86,261.4a3.29,3.29,0,0,0,2.07,2.31c1.17-1.2,2.51-3.07.67-4.33a1.51,1.51,0,0,0-1.75-.13A2,2,0,0,0,93.86,261.4Z" transform="translate(-70.03 -222.51)"/><path class="cls-1" d="M117.13,250.7c-2.48-7.28-8.35-12.07-13.92-11.82a6.95,6.95,0,1,0-6.29,3,12.07,12.07,0,0,0-2.3,3.74,5.7,5.7,0,1,0-10.42,4.08,12.27,12.27,0,0,0-6.85,8.11,13.05,13.05,0,0,0,.28,8.62,7.18,7.18,0,0,0,1.25,2.18A7.89,7.89,0,0,0,80.3,270a24.47,24.47,0,0,0,15.37,5.75c7.85,0,15-3.71,17.85-7.35C117.93,265.15,119.58,257.88,117.13,250.7ZM93.61,250a19.26,19.26,0,0,0,0,3.56,8.73,8.73,0,0,0-1.49-2.16A5.79,5.79,0,0,0,93.61,250Zm15.89,3.09c-.41,1.84-2.37,5-3.72,5.28a13.16,13.16,0,0,1-.67,2.63,5.89,5.89,0,0,1-1.81,2.43,11.13,11.13,0,0,1-3,1.28,7,7,0,0,1-4.32-.42,3.53,3.53,0,0,1-1.15,1,6.06,6.06,0,0,1-6.09-.71s-1.13-.94-1.65-1.45c-.92.11-2.51-1.6-3.25-2.61s-.8-2.47,0-3a1.79,1.79,0,0,1,1.83,0,1.54,1.54,0,0,1,1.18-.94c.93-.1,1.78.94,1.9,2.3.11,1.21-.48,3.49-1.26,4.05.31.27.22.22.61.57,0,0,.56.51.83.72a5.72,5.72,0,0,0,3.95,1.13,4.2,4.2,0,0,0,2.78-1.3c-1.14-.54-2.2-1.41-2.3-2.42a3,3,0,0,1,1.34-2.84,2.38,2.38,0,0,1,2.31.41c1.95,1.33.52,3.49-.67,4.66a4.4,4.4,0,0,0,2.77.62,13,13,0,0,0,2.51-.68,5.41,5.41,0,0,0,2.84-2.6,9.16,9.16,0,0,0,.89-2.76l.12,0h-.08l0,0c-1.33-.24-2.91-3.39-3.47-5.19-.61-2,0-3.93,1.42-4.37a2.54,2.54,0,0,1,2.54.88,2.25,2.25,0,0,1,2.07-.81C109.25,249.17,110,251.06,109.5,253.08Z" transform="translate(-70.03 -222.51)"/><path class="cls-2" d="M96.68,223.46C93,222.68,86,221.2,79.81,224.93c-10.39,6.24-9.86,21.75-9.73,25.32,0,1.53,1,21.38,13.85,26.85,4.23,1.81,8.33,1.7,11.9,1.41a36,36,0,0,0,17.22-6.41c2.91-2.05,11.77-8.32,13-17.85C127.77,239.89,111,226.51,96.68,223.46ZM104,275.37c-5,2.3-12.83,3.15-18.24,1.34-9.8-3.29-14.09-18.45-14.37-26.46-.26-7.23,1.73-20.21,9.27-24.09,5.46-2.81,13.06-2.33,16.85-.95,7.5,2.74,25.64,11.07,26.81,24.63a15.81,15.81,0,0,1-.54,6.08C119.88,268.78,110.06,272.61,104,275.37Z" transform="translate(-70.03 -222.51)"/><path class="cls-1" d="M96.66,275.09a24.44,24.44,0,1,1,24.43-24.43A24.44,24.44,0,0,1,96.66,275.09Zm0-50.2a25.77,25.77,0,1,0,25.76,25.77A25.77,25.77,0,0,0,96.66,224.89Z" transform="translate(-70.03 -222.51)"/><path class="cls-3" d="M96.66,230.05h0" transform="translate(-70.03 -222.51)"/><path class="cls-2" d="M134,260.13v-35.6h15.2v4.8h-10.1v10.45h8.8v4.8h-8.8V255h10.1v5.1Z" transform="translate(-70.03 -222.51)"/><path class="cls-2" d="M152.49,260.13v-35.6H160q4.4,0,6.67,2.4a9.49,9.49,0,0,1,2.28,6.8v16.65q0,5-2.43,7.38t-7,2.37Zm5.1-30.8v26h2.35a3.81,3.81,0,0,0,3.05-1.07,5.23,5.23,0,0,0,.9-3.38V233.73a5.44,5.44,0,0,0-.85-3.25,3.62,3.62,0,0,0-3.1-1.15Z" transform="translate(-70.03 -222.51)"/><path class="cls-2" d="M190.29,224.53v27.6a8.16,8.16,0,0,1-.63,3.23,8.43,8.43,0,0,1-4.42,4.42,8,8,0,0,1-3.2.65,7.83,7.83,0,0,1-3.18-.65,8.4,8.4,0,0,1-2.62-1.8,8.51,8.51,0,0,1-1.8-2.62,7.83,7.83,0,0,1-.65-3.23v-27.6h5.1v27.1a3.81,3.81,0,0,0,.9,2.8,3.26,3.26,0,0,0,4.5,0,3.81,3.81,0,0,0,.9-2.8v-27.1Z" transform="translate(-70.03 -222.51)"/><path class="cls-2" d="M211.29,250v2.2a7.92,7.92,0,0,1-.63,3.13,8.82,8.82,0,0,1-1.72,2.62,8.42,8.42,0,0,1-2.58,1.83,7.51,7.51,0,0,1-3.17.67,11.26,11.26,0,0,1-2.95-.4,7,7,0,0,1-2.7-1.4,7.81,7.81,0,0,1-2-2.57,9.11,9.11,0,0,1-.77-4v-19.6a8.66,8.66,0,0,1,.6-3.25,7.52,7.52,0,0,1,1.7-2.6,7.75,7.75,0,0,1,2.62-1.72,8.77,8.77,0,0,1,3.38-.63,7.72,7.72,0,0,1,5.85,2.35,8.51,8.51,0,0,1,1.72,2.73,9.12,9.12,0,0,1,.63,3.42v2h-5.1V233a4.16,4.16,0,0,0-.85-2.6,2.78,2.78,0,0,0-2.3-1.1,2.59,2.59,0,0,0-2.53,1.18,6.23,6.23,0,0,0-.62,3v18.2a4.72,4.72,0,0,0,.67,2.6,2.66,2.66,0,0,0,2.43,1.05,3.89,3.89,0,0,0,1.07-.17,3.34,3.34,0,0,0,1.08-.58,3.05,3.05,0,0,0,.75-1.1,4.47,4.47,0,0,0,.3-1.75V250Z" transform="translate(-70.03 -222.51)"/><path class="cls-2" d="M213.14,260.13l8-35.6h4.25l7.95,35.6h-5.1l-1.5-7.65h-6.95l-1.5,7.65Zm12.6-12.45-2.5-12.9h-.1l-2.5,12.9Z" transform="translate(-70.03 -222.51)"/><path class="cls-2" d="M235.79,260.13v-35.6H244q9,0,9,10.45a13.18,13.18,0,0,1-1,5.35,7.55,7.55,0,0,1-3.42,3.55l5.5,16.25h-5.4l-4.75-15.2h-3.05v15.2Zm5.1-30.8v11.1h2.9a5.16,5.16,0,0,0,2.15-.37,2.93,2.93,0,0,0,1.25-1.08,5,5,0,0,0,.55-1.72,16.73,16.73,0,0,0,.15-2.38,16.48,16.48,0,0,0-.15-2.37,4.74,4.74,0,0,0-.6-1.78c-.64-.93-1.84-1.4-3.6-1.4Z" transform="translate(-70.03 -222.51)"/><path class="cls-2" d="M257.09,260.13v-35.6h15.2v4.8h-10.1v10.45H271v4.8h-8.8V255h10.1v5.1Z" transform="translate(-70.03 -222.51)"/><path class="cls-2" d="M285,260.13v-35.6h5.09v35.6Z" transform="translate(-70.03 -222.51)"/><path class="cls-2" d="M294.88,260.13v-35.6h4.91L307.48,246h.1V224.53h5.1v35.6h-4.8l-7.8-21.4H300v21.4Z" transform="translate(-70.03 -222.51)"/><path class="cls-2" d="M326.58,260.13v-35.6h7.65a11.26,11.26,0,0,1,3.7.55,7.1,7.1,0,0,1,2.9,1.95,7.56,7.56,0,0,1,1.8,3.28,20.14,20.14,0,0,1,.5,5.07,25.63,25.63,0,0,1-.27,4.05,8.62,8.62,0,0,1-1.18,3.1,7.41,7.41,0,0,1-2.8,2.73,9.41,9.41,0,0,1-4.6,1h-2.6v13.9Zm5.1-30.8v12.1h2.45a5.17,5.17,0,0,0,2.4-.45,2.8,2.8,0,0,0,1.25-1.25,4.53,4.53,0,0,0,.48-1.85c.05-.73.07-1.55.07-2.45s0-1.62-.05-2.37a5.06,5.06,0,0,0-.45-2,2.76,2.76,0,0,0-1.2-1.3,4.75,4.75,0,0,0-2.3-.45Z" transform="translate(-70.03 -222.51)"/><path class="cls-2" d="M346.63,232.93a9.11,9.11,0,0,1,.75-3.8,8,8,0,0,1,2-2.75,8.5,8.5,0,0,1,2.73-1.6,8.87,8.87,0,0,1,6.15,0,9.15,9.15,0,0,1,2.77,1.6,8.34,8.34,0,0,1,2,2.75,9.11,9.11,0,0,1,.75,3.8v18.8a9,9,0,0,1-.75,3.85,7.91,7.91,0,0,1-2,2.65,8.71,8.71,0,0,1-2.77,1.65,8.87,8.87,0,0,1-6.15,0,8.12,8.12,0,0,1-2.73-1.65,7.64,7.64,0,0,1-2-2.65,9,9,0,0,1-.75-3.85Zm5.1,18.8a3.4,3.4,0,0,0,1,2.73,3.81,3.81,0,0,0,4.85,0,3.42,3.42,0,0,0,1-2.73v-18.8a3.39,3.39,0,0,0-1-2.72,3.78,3.78,0,0,0-4.85,0,3.36,3.36,0,0,0-1,2.72Z" transform="translate(-70.03 -222.51)"/><path class="cls-2" d="M384.73,234.78h-5.1v-1.15a5.42,5.42,0,0,0-.82-3,3.06,3.06,0,0,0-2.78-1.28,3.19,3.19,0,0,0-1.7.4,3.47,3.47,0,0,0-1.05,1,4.37,4.37,0,0,0-.55,1.48,9.57,9.57,0,0,0-.15,1.72,16.77,16.77,0,0,0,.08,1.75,3.32,3.32,0,0,0,.37,1.25,2.73,2.73,0,0,0,.88.95,8.07,8.07,0,0,0,1.57.8l3.9,1.55a9.35,9.35,0,0,1,2.75,1.53,6.5,6.5,0,0,1,1.65,2,9.26,9.26,0,0,1,.75,2.73,25.67,25.67,0,0,1,.2,3.47,18.41,18.41,0,0,1-.45,4.18,8.74,8.74,0,0,1-1.45,3.27,7.15,7.15,0,0,1-2.75,2.2,9.72,9.72,0,0,1-4.15.8,9.17,9.17,0,0,1-3.45-.65,8.2,8.2,0,0,1-2.75-1.8,9,9,0,0,1-1.82-2.67,8.16,8.16,0,0,1-.68-3.33v-1.9h5.1v1.6a4.19,4.19,0,0,0,.83,2.53,3.2,3.2,0,0,0,2.77,1.12,4.51,4.51,0,0,0,2-.37,2.65,2.65,0,0,0,1.12-1.08,3.89,3.89,0,0,0,.48-1.67c.05-.65.07-1.38.07-2.18a20.74,20.74,0,0,0-.1-2.3,3.85,3.85,0,0,0-.4-1.45,2.73,2.73,0,0,0-.92-.9,12.92,12.92,0,0,0-1.53-.75l-3.65-1.5a8.08,8.08,0,0,1-4.42-3.57,12.35,12.35,0,0,1-1.13-5.58,13.17,13.17,0,0,1,.55-3.8,8.78,8.78,0,0,1,1.65-3.1,7.4,7.4,0,0,1,2.68-2.07,8.85,8.85,0,0,1,3.87-.78,8.42,8.42,0,0,1,3.48.7,8.85,8.85,0,0,1,2.72,1.85,7.69,7.69,0,0,1,2.3,5.5Z" transform="translate(-70.03 -222.51)"/><path class="cls-2" d="M388.68,260.13v-35.6h5.1v35.6Z" transform="translate(-70.03 -222.51)"/><path class="cls-2" d="M402.08,260.13v-30.8h-5.9v-4.8h16.9v4.8h-5.9v30.8Z" transform="translate(-70.03 -222.51)"/><path class="cls-2" d="M415.48,260.13v-35.6h5.1v35.6Z" transform="translate(-70.03 -222.51)"/><path class="cls-2" d="M442.83,224.53l-7.3,35.6H431l-7.25-35.6h5.4l4.05,24.85h.1l4.1-24.85Z" transform="translate(-70.03 -222.51)"/><path class="cls-2" d="M445.58,232.93a9.11,9.11,0,0,1,.75-3.8,8,8,0,0,1,2-2.75,8.5,8.5,0,0,1,2.73-1.6,8.87,8.87,0,0,1,6.15,0,9.15,9.15,0,0,1,2.77,1.6,8.34,8.34,0,0,1,1.95,2.75,9.11,9.11,0,0,1,.75,3.8v18.8a9,9,0,0,1-.75,3.85,7.91,7.91,0,0,1-1.95,2.65,8.71,8.71,0,0,1-2.77,1.65,8.87,8.87,0,0,1-6.15,0,8.12,8.12,0,0,1-2.73-1.65,7.64,7.64,0,0,1-2-2.65,9,9,0,0,1-.75-3.85Zm5.1,18.8a3.4,3.4,0,0,0,1,2.73,3.81,3.81,0,0,0,4.85,0,3.42,3.42,0,0,0,1-2.73v-18.8a3.39,3.39,0,0,0-1-2.72,3.78,3.78,0,0,0-4.85,0,3.36,3.36,0,0,0-1,2.72Z" transform="translate(-70.03 -222.51)"/><path class="cls-1" d="M133.42,276.33l1.75-8.75h2l-1.42,7.1h4.38l-.34,1.65Z" transform="translate(-70.03 -222.51)"/><path class="cls-1" d="M140.92,271.2l1.41-3,.2,1.18a1.14,1.14,0,0,1-.82-.32,1.07,1.07,0,0,1-.33-.81,1.21,1.21,0,0,1,.39-.94,1.29,1.29,0,0,1,.91-.36,1.11,1.11,0,0,1,.82.32,1,1,0,0,1,.32.81,1.44,1.44,0,0,1-.09.51,3.14,3.14,0,0,1-.33.6l-1.24,2Z" transform="translate(-70.03 -222.51)"/><path class="cls-1" d="M143.52,276.33l1.34-6.73h1.94l-1.34,6.73Zm2.64-7.66a1.16,1.16,0,0,1-.83-.3,1,1,0,0,1-.31-.72,1.08,1.08,0,0,1,.36-.83,1.32,1.32,0,0,1,.93-.33,1.19,1.19,0,0,1,.83.28.91.91,0,0,1,.32.7,1.1,1.1,0,0,1-.36.86A1.28,1.28,0,0,1,146.16,268.67Z" transform="translate(-70.03 -222.51)"/><path class="cls-1" d="M152.52,269.5a2.83,2.83,0,0,1,1.47.36,1.93,1.93,0,0,1,.84,1,3.17,3.17,0,0,1,.06,1.7l-.75,3.73h-1.95l.72-3.6a1.49,1.49,0,0,0-.12-1.14,1.11,1.11,0,0,0-1-.4,1.79,1.79,0,0,0-1.23.43,2.22,2.22,0,0,0-.68,1.3l-.68,3.41h-1.95l1.34-6.73h1.85l-.39,1.9-.27-.57a3,3,0,0,1,1.2-1.08A3.49,3.49,0,0,1,152.52,269.5Z" transform="translate(-70.03 -222.51)"/><path class="cls-1" d="M156.11,271.25l.3-1.5h4.66l-.3,1.5Zm0,5.08,1.4-7a3.11,3.11,0,0,1,1-1.76,2.83,2.83,0,0,1,2-.66,3.83,3.83,0,0,1,.86.1,2,2,0,0,1,.69.28l-.76,1.4a1.33,1.33,0,0,0-.78-.24.94.94,0,0,0-.7.25,1.39,1.39,0,0,0-.36.76l-.14.63-.1.79-1.07,5.41Z" transform="translate(-70.03 -222.51)"/><path class="cls-1" d="M163.7,276.43a3,3,0,0,1-1.44-.36,2.69,2.69,0,0,1-1.06-1,3.09,3.09,0,0,1-.4-1.62,4.21,4.21,0,0,1,.28-1.57,3.76,3.76,0,0,1,.79-1.23,3.62,3.62,0,0,1,1.19-.82,3.52,3.52,0,0,1,1.45-.3,3.06,3.06,0,0,1,1.44.32,1.92,1.92,0,0,1,.89,1,3.36,3.36,0,0,1,.21,1.69,5.53,5.53,0,0,1-.49,2.08,3.27,3.27,0,0,1-1.14,1.38A3,3,0,0,1,163.7,276.43Zm.6-1.61a2,2,0,0,0,1-.28,2,2,0,0,0,.7-.78,2.48,2.48,0,0,0,.25-1.16,1.44,1.44,0,0,0-.4-1.08,1.54,1.54,0,0,0-1.14-.4,1.88,1.88,0,0,0-1.71,1.05,2.51,2.51,0,0,0-.26,1.16,1.47,1.47,0,0,0,.41,1.09A1.56,1.56,0,0,0,164.3,274.82Zm1.33,1.51.27-1.34.43-2,.27-2,.27-1.39h1.95l-1.34,6.73Z" transform="translate(-70.03 -222.51)"/><path class="cls-1" d="M174.53,269.5a2.81,2.81,0,0,1,1.47.36,2,2,0,0,1,.85,1,3.29,3.29,0,0,1,.05,1.7l-.75,3.73h-2l.72-3.6a1.49,1.49,0,0,0-.12-1.14,1.11,1.11,0,0,0-1-.4,1.79,1.79,0,0,0-1.23.43,2.22,2.22,0,0,0-.68,1.3l-.68,3.41h-1.95l1.34-6.73h1.85l-.39,1.9-.27-.57a3,3,0,0,1,1.21-1.08A3.45,3.45,0,0,1,174.53,269.5Z" transform="translate(-70.03 -222.51)"/><path class="cls-1" d="M177.45,276.33l.23-1.18,4.82-4.7.31.65H178.6l.3-1.5h5.77l-.22,1.18-4.82,4.7-.33-.65h4.45l-.3,1.5Z" transform="translate(-70.03 -222.51)"/><path class="cls-1" d="M184.71,276.33l1.34-6.73H188l-1.33,6.73Zm2.64-7.66a1.16,1.16,0,0,1-.83-.3.92.92,0,0,1-.31-.72,1.08,1.08,0,0,1,.36-.83,1.29,1.29,0,0,1,.93-.33,1.19,1.19,0,0,1,.83.28.91.91,0,0,1,.32.7,1.1,1.1,0,0,1-.36.86A1.29,1.29,0,0,1,187.35,268.67Z" transform="translate(-70.03 -222.51)"/><path class="cls-1" d="M191.5,276.43a3,3,0,0,1-1.44-.36,2.69,2.69,0,0,1-1.06-1,3.09,3.09,0,0,1-.4-1.62,4.21,4.21,0,0,1,.28-1.57,3.76,3.76,0,0,1,.79-1.23,3.62,3.62,0,0,1,1.19-.82,3.52,3.52,0,0,1,1.45-.3,3.06,3.06,0,0,1,1.44.32,2,2,0,0,1,.89,1,3.36,3.36,0,0,1,.21,1.69,5.53,5.53,0,0,1-.49,2.08,3.34,3.34,0,0,1-1.14,1.38A3,3,0,0,1,191.5,276.43Zm.6-1.61a2,2,0,0,0,1-.28,2,2,0,0,0,.7-.78,2.48,2.48,0,0,0,.25-1.16,1.44,1.44,0,0,0-.4-1.08,1.54,1.54,0,0,0-1.14-.4,1.88,1.88,0,0,0-1.71,1.05,2.51,2.51,0,0,0-.26,1.16,1.43,1.43,0,0,0,.41,1.09A1.56,1.56,0,0,0,192.1,274.82Zm1.33,1.51.27-1.34.43-2,.27-2,.27-1.39h2l-1.34,6.73Z" transform="translate(-70.03 -222.51)"/><path class="cls-1" d="M204.2,276.43a4.11,4.11,0,0,1-1.82-.38,2.77,2.77,0,0,1-1.62-2.63,4,4,0,0,1,.51-2,3.6,3.6,0,0,1,1.4-1.39,4,4,0,0,1,2.05-.52,3.71,3.71,0,0,1,1.7.37,2.7,2.7,0,0,1,1.11,1,3,3,0,0,1,.39,1.57,4.53,4.53,0,0,1,0,.52c0,.18,0,.34-.08.5h-5.56l.2-1.14h4.45l-.8.35a1.68,1.68,0,0,0-.07-.94,1.19,1.19,0,0,0-.52-.59,1.82,1.82,0,0,0-.88-.2,1.9,1.9,0,0,0-1.08.3,2,2,0,0,0-.67.85,3.07,3.07,0,0,0-.22,1.21,1.47,1.47,0,0,0,.43,1.16,2,2,0,0,0,1.31.38,2.93,2.93,0,0,0,1-.17,2.27,2.27,0,0,0,.82-.46l.81,1.29a3.94,3.94,0,0,1-1.32.68A5,5,0,0,1,204.2,276.43Zm.56-7.68-1.9-1.8H205l1.32,1.8Z" transform="translate(-70.03 -222.51)"/><path class="cls-1" d="M212,276.33l1.34-6.73h1.94L214,276.33Zm2.64-7.66a1.16,1.16,0,0,1-.83-.3.92.92,0,0,1-.31-.72,1.08,1.08,0,0,1,.36-.83,1.29,1.29,0,0,1,.93-.33,1.19,1.19,0,0,1,.83.28.91.91,0,0,1,.32.7,1.1,1.1,0,0,1-.36.86A1.29,1.29,0,0,1,214.65,268.67Z" transform="translate(-70.03 -222.51)"/><path class="cls-1" d="M215.76,276.33l1.85-9.28h1.95l-1.85,9.28Z" transform="translate(-70.03 -222.51)"/><path class="cls-1" d="M225.92,278.85a6.7,6.7,0,0,1-1.79-.22,4.18,4.18,0,0,1-1.41-.66l.93-1.42a2.94,2.94,0,0,0,1,.53,4.46,4.46,0,0,0,1.33.2,2.3,2.3,0,0,0,1.52-.44,2.23,2.23,0,0,0,.68-1.3l.24-1.21.45-1.58.3-1.7.27-1.45h1.86l-1.11,5.6a4.56,4.56,0,0,1-1.47,2.8A4.42,4.42,0,0,1,225.92,278.85Zm.29-2.85a3.37,3.37,0,0,1-1.5-.33,2.73,2.73,0,0,1-1.08-1,2.84,2.84,0,0,1-.4-1.52,3.6,3.6,0,0,1,.29-1.44,3.54,3.54,0,0,1,2-1.95,3.84,3.84,0,0,1,1.49-.29,3.21,3.21,0,0,1,1.34.28,2,2,0,0,1,.93.89,2.88,2.88,0,0,1,.25,1.63,5.23,5.23,0,0,1-.49,1.95,3.29,3.29,0,0,1-1.12,1.29A3,3,0,0,1,226.21,276Zm.52-1.6a2,2,0,0,0,1-.25,1.67,1.67,0,0,0,.68-.69,2,2,0,0,0,.25-1,1.22,1.22,0,0,0-.4-1,1.62,1.62,0,0,0-1.11-.35,2,2,0,0,0-1,.25,1.79,1.79,0,0,0-.7.69,2,2,0,0,0-.25,1,1.2,1.2,0,0,0,.41,1A1.64,1.64,0,0,0,226.73,274.4Z" transform="translate(-70.03 -222.51)"/><path class="cls-1" d="M231.81,276.33l1.34-6.73h1.93l-1.33,6.73Zm2.64-7.66a1.16,1.16,0,0,1-.83-.3.92.92,0,0,1-.31-.72,1.08,1.08,0,0,1,.36-.83,1.29,1.29,0,0,1,.93-.33,1.19,1.19,0,0,1,.83.28.91.91,0,0,1,.32.7,1.1,1.1,0,0,1-.36.86A1.29,1.29,0,0,1,234.45,268.67Z" transform="translate(-70.03 -222.51)"/><path class="cls-1" d="M238.6,276.43a3,3,0,0,1-1.44-.36,2.69,2.69,0,0,1-1.06-1,3.09,3.09,0,0,1-.4-1.62,4.21,4.21,0,0,1,.28-1.57,3.76,3.76,0,0,1,.79-1.23,3.62,3.62,0,0,1,1.19-.82,3.52,3.52,0,0,1,1.45-.3,3.06,3.06,0,0,1,1.44.32,2,2,0,0,1,.89,1,3.36,3.36,0,0,1,.21,1.69,5.53,5.53,0,0,1-.49,2.08,3.34,3.34,0,0,1-1.14,1.38A3,3,0,0,1,238.6,276.43Zm.6-1.61a2,2,0,0,0,1-.28,2,2,0,0,0,.7-.78,2.48,2.48,0,0,0,.25-1.16,1.44,1.44,0,0,0-.4-1.08,1.54,1.54,0,0,0-1.14-.4,1.88,1.88,0,0,0-1.71,1.05,2.51,2.51,0,0,0-.26,1.16,1.43,1.43,0,0,0,.41,1.09A1.56,1.56,0,0,0,239.2,274.82Zm1.33,1.51.27-1.34.43-2,.27-2,.27-1.39h1.95l-1.34,6.73Z" transform="translate(-70.03 -222.51)"/><path class="cls-1" d="M244.18,276.33l1.34-6.73h1.85l-.39,1.92-.17-.55a2.52,2.52,0,0,1,1.17-1.14,4.22,4.22,0,0,1,1.74-.33l-.35,1.8h-.45a2.22,2.22,0,0,0-1.4.42,2.25,2.25,0,0,0-.74,1.38l-.65,3.25Z" transform="translate(-70.03 -222.51)"/><path class="cls-1" d="M252.52,276.43a3,3,0,0,1-1.44-.36,2.76,2.76,0,0,1-1.06-1,3.19,3.19,0,0,1-.4-1.62,4.43,4.43,0,0,1,.28-1.57,3.79,3.79,0,0,1,.8-1.23,3.62,3.62,0,0,1,1.19-.82,3.47,3.47,0,0,1,1.44-.3,3.22,3.22,0,0,1,1.37.28,2,2,0,0,1,.89.84,2.94,2.94,0,0,1,.32,1.43,6.28,6.28,0,0,1-.22,1.72,4.14,4.14,0,0,1-.65,1.39,3.16,3.16,0,0,1-1.07.93A3,3,0,0,1,252.52,276.43Zm.6-1.61a1.9,1.9,0,0,0,1-.28,2,2,0,0,0,.7-.78,2.48,2.48,0,0,0,.26-1.16,1.45,1.45,0,0,0-.41-1.08,1.53,1.53,0,0,0-1.13-.4,1.85,1.85,0,0,0-1,.28,1.89,1.89,0,0,0-.71.77,2.51,2.51,0,0,0-.26,1.16,1.47,1.47,0,0,0,.41,1.09A1.57,1.57,0,0,0,253.12,274.82Zm1.33,1.51.27-1.34.43-2,.26-2,.79-3.94h1.95l-1.85,9.28Z" transform="translate(-70.03 -222.51)"/><path class="cls-1" d="M258.11,276.33l1.34-6.73h1.94l-1.34,6.73Zm2.64-7.66a1.16,1.16,0,0,1-.83-.3.92.92,0,0,1-.31-.72,1.08,1.08,0,0,1,.36-.83,1.29,1.29,0,0,1,.93-.33,1.19,1.19,0,0,1,.83.28.91.91,0,0,1,.32.7,1.1,1.1,0,0,1-.36.86A1.29,1.29,0,0,1,260.75,268.67Z" transform="translate(-70.03 -222.51)"/><path class="cls-1" d="M267.11,269.5a2.77,2.77,0,0,1,1.46.36,2,2,0,0,1,.85,1,3.09,3.09,0,0,1,.05,1.7l-.75,3.73h-2l.73-3.6a1.49,1.49,0,0,0-.12-1.14,1.12,1.12,0,0,0-1-.4,1.79,1.79,0,0,0-1.23.43,2.22,2.22,0,0,0-.68,1.3l-.68,3.41h-1.95l1.34-6.73h1.85l-.39,1.9-.27-.57a3,3,0,0,1,1.2-1.08A3.49,3.49,0,0,1,267.11,269.5Z" transform="translate(-70.03 -222.51)"/><path class="cls-1" d="M274,276.43a4,4,0,0,1-1.79-.38,2.81,2.81,0,0,1-1.18-1.05,2.91,2.91,0,0,1-.42-1.58,3.86,3.86,0,0,1,.52-2,3.73,3.73,0,0,1,1.45-1.39,4.13,4.13,0,0,1,2.09-.52,4,4,0,0,1,1.79.38,2.85,2.85,0,0,1,1.18,1,3,3,0,0,1,.42,1.6,3.88,3.88,0,0,1-.53,2,3.8,3.8,0,0,1-1.44,1.4A4.18,4.18,0,0,1,274,276.43Zm.12-1.6a1.86,1.86,0,0,0,1-.28,1.94,1.94,0,0,0,.69-.78,2.55,2.55,0,0,0,.25-1.17,1.41,1.41,0,0,0-1.52-1.5,1.9,1.9,0,0,0-1.72,1.07,2.51,2.51,0,0,0-.26,1.16,1.51,1.51,0,0,0,.4,1.09A1.54,1.54,0,0,0,274.16,274.83Z" transform="translate(-70.03 -222.51)"/><path class="cls-1" d="M282.23,276.33l1.34-6.73h1.94l-1.34,6.73Zm2.64-7.66a1.12,1.12,0,0,1-.82-.3.93.93,0,0,1-.32-.72,1.08,1.08,0,0,1,.36-.83,1.32,1.32,0,0,1,.93-.33,1.19,1.19,0,0,1,.83.28.88.88,0,0,1,.32.7,1.13,1.13,0,0,1-.35.86A1.32,1.32,0,0,1,284.87,268.67Z" transform="translate(-70.03 -222.51)"/><path class="cls-1" d="M291.23,269.5a2.81,2.81,0,0,1,1.47.36,2,2,0,0,1,.85,1,3.29,3.29,0,0,1,.05,1.7l-.75,3.73h-2l.72-3.6a1.49,1.49,0,0,0-.12-1.14,1.11,1.11,0,0,0-1-.4,1.79,1.79,0,0,0-1.23.43,2.22,2.22,0,0,0-.68,1.3l-.68,3.41H286l1.34-6.73h1.85l-.39,1.9-.27-.57a3,3,0,0,1,1.21-1.08A3.45,3.45,0,0,1,291.23,269.5Z" transform="translate(-70.03 -222.51)"/><path class="cls-1" d="M301.71,276.43a4.12,4.12,0,0,1-1.81-.38,2.83,2.83,0,0,1-1.19-1.05,2.92,2.92,0,0,1-.43-1.58,3.87,3.87,0,0,1,.53-2,3.73,3.73,0,0,1,1.45-1.39,4.22,4.22,0,0,1,2.12-.52,3.72,3.72,0,0,1,1.87.45,2.7,2.7,0,0,1,1.16,1.25l-1.65.83a1.48,1.48,0,0,0-.59-.7,2.05,2.05,0,0,0-1.94.07,2,2,0,0,0-.71.77,2.47,2.47,0,0,0-.26,1.15,1.43,1.43,0,0,0,.41,1.09,1.55,1.55,0,0,0,1.15.41,2.1,2.1,0,0,0,.94-.22,1.92,1.92,0,0,0,.71-.68l1.44.9a3.21,3.21,0,0,1-1.32,1.18A4,4,0,0,1,301.71,276.43Z" transform="translate(-70.03 -222.51)"/><path class="cls-1" d="M308.42,276.43a2.7,2.7,0,0,1-1.42-.36,1.91,1.91,0,0,1-.85-1,3.09,3.09,0,0,1,0-1.7l.73-3.73h1.95l-.71,3.6a1.47,1.47,0,0,0,.12,1.14,1.07,1.07,0,0,0,1,.4,1.83,1.83,0,0,0,1.22-.42A2.2,2.2,0,0,0,311,273l.69-3.42h2l-1.34,6.73h-1.85l.38-1.9.27.57a2.73,2.73,0,0,1-1.19,1.08A3.38,3.38,0,0,1,308.42,276.43Z" transform="translate(-70.03 -222.51)"/><path class="cls-1" d="M314.13,276.33l1.34-6.73h1.94l-1.34,6.73Zm2.64-7.66a1.13,1.13,0,0,1-.82-.3.93.93,0,0,1-.32-.72,1.08,1.08,0,0,1,.36-.83,1.32,1.32,0,0,1,.93-.33,1.19,1.19,0,0,1,.83.28.88.88,0,0,1,.32.7,1.13,1.13,0,0,1-.35.86A1.32,1.32,0,0,1,316.77,268.67Z" transform="translate(-70.03 -222.51)"/><path class="cls-1" d="M324.28,278.85a6.75,6.75,0,0,1-1.79-.22,4.37,4.37,0,0,1-1.41-.66l.93-1.42a3,3,0,0,0,1,.53,4.51,4.51,0,0,0,1.33.2,2.28,2.28,0,0,0,1.52-.44,2.17,2.17,0,0,0,.68-1.3l.24-1.21.45-1.58.3-1.7.27-1.45h1.87l-1.12,5.6a3.93,3.93,0,0,1-4.3,3.65Zm.29-2.85a3.37,3.37,0,0,1-1.5-.33,2.64,2.64,0,0,1-1.07-1,2.76,2.76,0,0,1-.4-1.52,3.59,3.59,0,0,1,.28-1.44,3.72,3.72,0,0,1,.79-1.17,3.52,3.52,0,0,1,1.18-.78,3.89,3.89,0,0,1,1.5-.29,3.2,3.2,0,0,1,1.33.28,2,2,0,0,1,.94.89,2.89,2.89,0,0,1,.24,1.63,5,5,0,0,1-.49,1.95,3.21,3.21,0,0,1-1.12,1.29A3,3,0,0,1,324.57,276Zm.53-1.6a2,2,0,0,0,1-.25,1.76,1.76,0,0,0,.69-.69,2.08,2.08,0,0,0,.25-1,1.26,1.26,0,0,0-.4-1,1.67,1.67,0,0,0-1.12-.35,2,2,0,0,0-1,.25,1.72,1.72,0,0,0-.7.69,1.94,1.94,0,0,0-.26,1,1.23,1.23,0,0,0,.41,1A1.66,1.66,0,0,0,325.1,274.4Z" transform="translate(-70.03 -222.51)"/><path class="cls-1" d="M330.17,276.33l1.34-6.73h1.94l-1.34,6.73Zm2.64-7.66a1.16,1.16,0,0,1-.83-.3,1,1,0,0,1-.31-.72,1.08,1.08,0,0,1,.36-.83,1.32,1.32,0,0,1,.93-.33,1.19,1.19,0,0,1,.83.28.91.91,0,0,1,.32.7,1.1,1.1,0,0,1-.36.86A1.28,1.28,0,0,1,332.81,268.67Z" transform="translate(-70.03 -222.51)"/><path class="cls-1" d="M337.43,276.43a4,4,0,0,1-1.78-.38,2.81,2.81,0,0,1-1.18-1.05,2.91,2.91,0,0,1-.42-1.58,3.86,3.86,0,0,1,.52-2A3.73,3.73,0,0,1,336,270a4.13,4.13,0,0,1,2.09-.52,4,4,0,0,1,1.79.38,2.85,2.85,0,0,1,1.18,1,3,3,0,0,1,.42,1.6,3.88,3.88,0,0,1-.53,2,3.8,3.8,0,0,1-1.44,1.4A4.19,4.19,0,0,1,337.43,276.43Zm.13-1.6a1.86,1.86,0,0,0,1-.28,1.94,1.94,0,0,0,.69-.78,2.55,2.55,0,0,0,.25-1.17,1.41,1.41,0,0,0-1.52-1.5,1.9,1.9,0,0,0-1.72,1.07,2.51,2.51,0,0,0-.26,1.16,1.51,1.51,0,0,0,.4,1.09A1.54,1.54,0,0,0,337.56,274.83Z" transform="translate(-70.03 -222.51)"/><path class="cls-1" d="M345.65,276.43a4.09,4.09,0,0,1-1.81-.38,2.81,2.81,0,0,1-1.62-2.63,3.87,3.87,0,0,1,.53-2A3.73,3.73,0,0,1,344.2,270a4.19,4.19,0,0,1,2.12-.52,3.66,3.66,0,0,1,1.86.45,2.67,2.67,0,0,1,1.17,1.25l-1.65.83a1.49,1.49,0,0,0-.6-.7,1.81,1.81,0,0,0-.9-.21,1.91,1.91,0,0,0-1.74,1.05,2.35,2.35,0,0,0-.26,1.15,1.46,1.46,0,0,0,.4,1.09,1.58,1.58,0,0,0,1.16.41,2.13,2.13,0,0,0,.94-.22,1.92,1.92,0,0,0,.71-.68l1.44.9a3.21,3.21,0,0,1-1.32,1.18A4,4,0,0,1,345.65,276.43Z" transform="translate(-70.03 -222.51)"/><path class="cls-1" d="M354.68,269.5a2.76,2.76,0,0,1,1.45.36,2,2,0,0,1,.86,1,3.17,3.17,0,0,1,.06,1.7l-.75,3.73h-1.95l.72-3.6a1.49,1.49,0,0,0-.12-1.14,1.11,1.11,0,0,0-1-.4,1.79,1.79,0,0,0-1.23.43,2.22,2.22,0,0,0-.68,1.3l-.68,3.41h-1.95l1.86-9.28h1.94l-.88,4.45-.39-.57a3,3,0,0,1,1.21-1.08A3.45,3.45,0,0,1,354.68,269.5Z" transform="translate(-70.03 -222.51)"/><path class="cls-1" d="M361.67,276.43a4.14,4.14,0,0,1-1.82-.38,2.83,2.83,0,0,1-1.19-1.05,2.92,2.92,0,0,1-.43-1.58,4,4,0,0,1,.51-2,3.67,3.67,0,0,1,1.4-1.39,4,4,0,0,1,2.06-.52,3.74,3.74,0,0,1,1.7.37,2.73,2.73,0,0,1,1.1,1,2.91,2.91,0,0,1,.4,1.57,4.53,4.53,0,0,1,0,.52c0,.18-.05.34-.09.5h-5.56l.2-1.14h4.45l-.8.35a1.6,1.6,0,0,0-.06-.94,1.21,1.21,0,0,0-.53-.59,1.8,1.8,0,0,0-.87-.2,1.86,1.86,0,0,0-1.08.3,1.89,1.89,0,0,0-.67.85,3.07,3.07,0,0,0-.23,1.21,1.47,1.47,0,0,0,.44,1.16,1.92,1.92,0,0,0,1.3.38,3,3,0,0,0,1-.17,2.15,2.15,0,0,0,.81-.46l.81,1.29a4,4,0,0,1-1.31.68A5.09,5.09,0,0,1,361.67,276.43Z" transform="translate(-70.03 -222.51)"/><path class="cls-1" d="M366,276.33l1.33-6.73h1.85l-.38,1.92-.18-.55a2.49,2.49,0,0,1,1.18-1.14,4.14,4.14,0,0,1,1.73-.33l-.35,1.8h-.45a2,2,0,0,0-2.13,1.8l-.65,3.25Z" transform="translate(-70.03 -222.51)"/><path class="cls-1" d="M374.8,276.43a4.11,4.11,0,0,1-1.82-.38,2.77,2.77,0,0,1-1.62-2.63,4,4,0,0,1,.51-2,3.6,3.6,0,0,1,1.4-1.39,4,4,0,0,1,2.05-.52,3.71,3.71,0,0,1,1.7.37,2.7,2.7,0,0,1,1.11,1,3,3,0,0,1,.39,1.57,4.53,4.53,0,0,1,0,.52c0,.18-.05.34-.08.5h-5.56l.2-1.14h4.45l-.8.35a1.68,1.68,0,0,0-.07-.94,1.19,1.19,0,0,0-.52-.59,1.82,1.82,0,0,0-.88-.2,1.9,1.9,0,0,0-1.08.3,2,2,0,0,0-.67.85,3.07,3.07,0,0,0-.22,1.21,1.47,1.47,0,0,0,.43,1.16,2,2,0,0,0,1.31.38,2.93,2.93,0,0,0,1-.17,2.27,2.27,0,0,0,.82-.46l.81,1.29a3.94,3.94,0,0,1-1.32.68A5.07,5.07,0,0,1,374.8,276.43Z" transform="translate(-70.03 -222.51)"/><path class="cls-1" d="M388.85,269.5a2.69,2.69,0,0,1,1.43.36,1.93,1.93,0,0,1,.84,1,3.1,3.1,0,0,1,0,1.7l-.74,3.73h-1.95l.71-3.59a1.47,1.47,0,0,0-.1-1.15,1,1,0,0,0-.91-.4,1.64,1.64,0,0,0-1.14.41,2.3,2.3,0,0,0-.62,1.28l-.69,3.45h-2l.71-3.59a1.57,1.57,0,0,0-.1-1.15,1,1,0,0,0-.91-.4,1.64,1.64,0,0,0-1.14.41,2.3,2.3,0,0,0-.63,1.3l-.68,3.43h-1.95l1.34-6.73h1.85l-.35,1.72-.3-.39a3,3,0,0,1,1.15-1.08,3.24,3.24,0,0,1,1.46-.35,2.75,2.75,0,0,1,1.13.23,2,2,0,0,1,.82.67,2.09,2.09,0,0,1,.36,1.1l-.75-.18a3.5,3.5,0,0,1,1.29-1.35A3.4,3.4,0,0,1,388.85,269.5Z" transform="translate(-70.03 -222.51)"/><path class="cls-1" d="M395.72,276.43a4,4,0,0,1-1.79-.38,2.87,2.87,0,0,1-1.18-1.05,2.91,2.91,0,0,1-.42-1.58,3.87,3.87,0,0,1,.53-2A3.77,3.77,0,0,1,394.3,270a4.17,4.17,0,0,1,2.1-.52,4,4,0,0,1,1.79.38,2.92,2.92,0,0,1,1.18,1,3,3,0,0,1,.41,1.6,3.88,3.88,0,0,1-.52,2,3.8,3.8,0,0,1-1.44,1.4A4.24,4.24,0,0,1,395.72,276.43Zm.13-1.6a1.86,1.86,0,0,0,1-.28,2,2,0,0,0,.69-.78,2.55,2.55,0,0,0,.25-1.17,1.46,1.46,0,0,0-.4-1.08,1.49,1.49,0,0,0-1.13-.42,1.81,1.81,0,0,0-1,.29,1.84,1.84,0,0,0-.7.78,2.39,2.39,0,0,0-.26,1.16,1.46,1.46,0,0,0,.4,1.09A1.53,1.53,0,0,0,395.85,274.83Z" transform="translate(-70.03 -222.51)"/><path class="cls-1" d="M407,276.43a3,3,0,0,1-1.43-.36,2.71,2.71,0,0,1-1.07-1,3.19,3.19,0,0,1-.4-1.62,4.22,4.22,0,0,1,.29-1.57,3.69,3.69,0,0,1,2-2.05,3.52,3.52,0,0,1,1.45-.3,3.17,3.17,0,0,1,1.36.28,2,2,0,0,1,.89.84,2.94,2.94,0,0,1,.32,1.43,6.28,6.28,0,0,1-.22,1.72,4.14,4.14,0,0,1-.65,1.39,3.16,3.16,0,0,1-1.07.93A3,3,0,0,1,407,276.43Zm.6-1.61a1.9,1.9,0,0,0,1-.28,2,2,0,0,0,.7-.78,2.48,2.48,0,0,0,.26-1.16,1.45,1.45,0,0,0-.41-1.08,1.53,1.53,0,0,0-1.13-.4,1.85,1.85,0,0,0-1,.28,1.89,1.89,0,0,0-.71.77,2.51,2.51,0,0,0-.25,1.16,1.46,1.46,0,0,0,.4,1.09A1.57,1.57,0,0,0,407.58,274.82Zm1.33,1.51.27-1.34.43-2,.26-2,.79-3.94h1.95l-1.85,9.28Z" transform="translate(-70.03 -222.51)"/><path class="cls-1" d="M415.61,276.43a3,3,0,0,1-1.44-.36,2.76,2.76,0,0,1-1.06-1,3.09,3.09,0,0,1-.4-1.62,4.21,4.21,0,0,1,.28-1.57,3.76,3.76,0,0,1,.79-1.23,3.62,3.62,0,0,1,1.19-.82,3.52,3.52,0,0,1,1.45-.3,3.06,3.06,0,0,1,1.44.32,1.92,1.92,0,0,1,.89,1,3.36,3.36,0,0,1,.21,1.69,5.53,5.53,0,0,1-.49,2.08,3.27,3.27,0,0,1-1.14,1.38A3,3,0,0,1,415.61,276.43Zm.6-1.61a2,2,0,0,0,1-.28,2,2,0,0,0,.7-.78,2.48,2.48,0,0,0,.25-1.16,1.44,1.44,0,0,0-.4-1.08,1.53,1.53,0,0,0-1.13-.4,1.88,1.88,0,0,0-1.72,1.05,2.51,2.51,0,0,0-.26,1.16,1.47,1.47,0,0,0,.41,1.09A1.56,1.56,0,0,0,416.21,274.82Zm1.34,1.51.26-1.34.44-2,.26-2,.27-1.39h2l-1.33,6.73Z" transform="translate(-70.03 -222.51)"/><path class="cls-1" d="M427.77,276.43a3,3,0,0,1-1.44-.36,2.76,2.76,0,0,1-1.06-1,3.09,3.09,0,0,1-.4-1.62,4.21,4.21,0,0,1,.28-1.57,3.63,3.63,0,0,1,.8-1.23,3.64,3.64,0,0,1,2.63-1.12,3.06,3.06,0,0,1,1.44.32,1.92,1.92,0,0,1,.89,1,3.36,3.36,0,0,1,.21,1.69,5.35,5.35,0,0,1-.49,2.08,3.27,3.27,0,0,1-1.14,1.38A3,3,0,0,1,427.77,276.43Zm.6-1.61a2,2,0,0,0,1-.28,2,2,0,0,0,.7-.78,2.48,2.48,0,0,0,.25-1.16,1.44,1.44,0,0,0-.4-1.08,1.53,1.53,0,0,0-1.13-.4,1.86,1.86,0,0,0-1,.28,1.94,1.94,0,0,0-.7.77,2.51,2.51,0,0,0-.26,1.16,1.47,1.47,0,0,0,.41,1.09A1.57,1.57,0,0,0,428.37,274.82Zm1.34,1.51L430,275l.44-2,.26-2,.28-1.39h1.95l-1.34,6.73Z" transform="translate(-70.03 -222.51)"/><path class="cls-1" d="M436.42,276.43a3,3,0,0,1-1.44-.36,2.76,2.76,0,0,1-1.06-1,3.09,3.09,0,0,1-.4-1.62,4.21,4.21,0,0,1,.28-1.57,3.69,3.69,0,0,1,2-2.05,3.55,3.55,0,0,1,1.45-.3,3.14,3.14,0,0,1,1.36.28,1.93,1.93,0,0,1,.9.84,2.94,2.94,0,0,1,.32,1.43,6.69,6.69,0,0,1-.22,1.72,4.36,4.36,0,0,1-.66,1.39,3.07,3.07,0,0,1-1.07.93A3,3,0,0,1,436.42,276.43Zm.6-1.61a2,2,0,0,0,1-.28,2,2,0,0,0,.7-.78,2.48,2.48,0,0,0,.26-1.16,1.45,1.45,0,0,0-.41-1.08,1.53,1.53,0,0,0-1.13-.4,1.83,1.83,0,0,0-1,.28,1.89,1.89,0,0,0-.71.77,2.51,2.51,0,0,0-.26,1.16,1.47,1.47,0,0,0,.41,1.09A1.57,1.57,0,0,0,437,274.82Zm1.32,1.51.28-1.34.42-2,.27-2,.78-3.94h2l-1.84,9.28Z" transform="translate(-70.03 -222.51)"/><path class="cls-1" d="M444.88,276.43a2.7,2.7,0,0,1-1.42-.36,1.91,1.91,0,0,1-.85-1,3.09,3.09,0,0,1-.05-1.7l.73-3.73h1.95l-.71,3.6a1.47,1.47,0,0,0,.12,1.14,1.07,1.07,0,0,0,1,.4,1.83,1.83,0,0,0,1.22-.42,2.2,2.2,0,0,0,.65-1.3l.69-3.42h1.95l-1.34,6.73h-1.85l.38-1.9.27.57a2.73,2.73,0,0,1-1.19,1.08A3.38,3.38,0,0,1,444.88,276.43Z" transform="translate(-70.03 -222.51)"/><path class="cls-1" d="M450.59,276.33l1.86-9.28h1.94l-1.85,9.28Z" transform="translate(-70.03 -222.51)"/><path class="cls-1" d="M454.56,271.25l.3-1.5h4.66l-.3,1.5Zm2.53,5.18a2.49,2.49,0,0,1-1.23-.29,1.64,1.64,0,0,1-.73-.85,2.31,2.31,0,0,1-.07-1.32l1.16-5.85h1.95L457,274a1,1,0,0,0,.08.68.67.67,0,0,0,.61.25,1.44,1.44,0,0,0,.4-.06,1.21,1.21,0,0,0,.38-.18l.29,1.39a2.42,2.42,0,0,1-.8.31A4.31,4.31,0,0,1,457.09,276.43Z" transform="translate(-70.03 -222.51)"/><path class="cls-1" d="M459.79,276.33l1.34-6.73h1.94l-1.34,6.73Zm2.64-7.66a1.13,1.13,0,0,1-.82-.3.93.93,0,0,1-.32-.72,1.08,1.08,0,0,1,.36-.83,1.32,1.32,0,0,1,.93-.33,1.19,1.19,0,0,1,.83.28.88.88,0,0,1,.32.7,1.13,1.13,0,0,1-.35.86A1.32,1.32,0,0,1,462.43,268.67Z" transform="translate(-70.03 -222.51)"/></svg>